<svg width="1600" height="900" viewBox="0 0 1600 900" fill="none" xmlns="http://www.w3.org/2000/svg">
  <rect width="1600" height="900" fill="#D1D1D1"/>
  <defs>
    <pattern id="grid" width="65" height="65" patternUnits="userSpaceOnUse">
      <path d="M65 0H0V65" stroke="#F5F5F5" stroke-width="2"/>
    </pattern>
    <linearGradient id="topGlow" x1="0" y1="0" x2="560" y2="0" gradientUnits="userSpaceOnUse">
      <stop stop-color="#171717"/>
      <stop offset="1" stop-color="#262626" stop-opacity="0"/>
    </linearGradient>
    <linearGradient id="spectrum" x1="420" y1="640" x2="1180" y2="640" gradientUnits="userSpaceOnUse">
      <stop stop-color="#F97316"/>
      <stop offset="0.18" stop-color="#FDE047"/>
      <stop offset="0.38" stop-color="#84CC16"/>
      <stop offset="0.58" stop-color="#22D3EE"/>
      <stop offset="0.78" stop-color="#3B82F6"/>
      <stop offset="1" stop-color="#C026D3"/>
    </linearGradient>
  </defs>

  <rect width="1600" height="900" fill="url(#grid)" opacity="0.95"/>

  <g fill="#111111">
    <rect x="0" y="0" width="35" height="35"/>
    <rect x="155" y="0" width="110" height="24"/>
    <rect x="420" y="0" width="115" height="24"/>
    <rect x="680" y="0" width="120" height="24"/>
    <rect x="940" y="0" width="120" height="24"/>
    <rect x="1210" y="0" width="120" height="24"/>
    <rect x="1460" y="0" width="120" height="24"/>
    <rect x="1575" y="0" width="25" height="900"/>
    <rect x="0" y="865" width="1600" height="35"/>
    <rect x="0" y="315" width="35" height="70"/>
    <rect x="0" y="585" width="35" height="70"/>
    <rect x="0" y="100" width="35" height="70"/>
    <rect x="0" y="760" width="35" height="70"/>
  </g>

  <rect x="0" y="0" width="1600" height="900" fill="#808080" fill-opacity="0.2"/>

  <circle cx="800" cy="450" r="370" fill="#F5F5F5"/>
  <circle cx="800" cy="450" r="290" fill="#111111"/>
  <circle cx="800" cy="450" r="245" fill="#D4D4D8"/>

  <rect x="610" y="72" width="380" height="82" fill="#111111"/>
  <path d="M492 195C558 122 659 82 800 82C941 82 1044 122 1110 195V225H492V195Z" fill="#F5F5F5"/>
  <rect x="100" y="105" width="130" height="130" fill="#F5F5F5"/>
  <circle cx="165" cy="170" r="55" fill="#111111"/>
  <rect x="1370" y="105" width="130" height="130" fill="#F5F5F5"/>
  <circle cx="1435" cy="170" r="55" fill="#F5F5F5" stroke="#111111" stroke-width="4"/>
  <path d="M1435 118V222M1383 170H1487" stroke="#111111" stroke-width="3"/>

  <rect x="305" y="105" width="130" height="130" fill="#E11DFF"/>
  <rect x="1165" y="105" width="130" height="130" fill="#3BE11D"/>
  <rect x="305" y="655" width="130" height="130" fill="#B0128F"/>
  <rect x="1165" y="655" width="130" height="130" fill="#4A9CF4"/>

  <rect x="305" y="290" width="64" height="300" fill="#1D1DFF"/>
  <rect x="1231" y="290" width="64" height="300" fill="#FFF200"/>

  <g>
    <rect x="415" y="290" width="145" height="150" fill="#FFF200"/>
    <rect x="560" y="290" width="145" height="150" fill="#22D3EE"/>
    <rect x="705" y="290" width="145" height="150" fill="#18FF00"/>
    <rect x="850" y="290" width="145" height="150" fill="#F000E8"/>
    <rect x="995" y="290" width="145" height="150" fill="#FF1B0F"/>
    <rect x="1140" y="290" width="145" height="150" fill="#1D1DFF"/>
  </g>

  <g fill="#111111">
    <rect x="415" y="440" width="870" height="72"/>
    <rect x="795" y="365" width="70" height="210"/>
    <rect x="560" y="155" width="90" height="135"/>
    <rect x="950" y="155" width="90" height="135"/>
  </g>

  <rect x="415" y="515" width="870" height="110" fill="url(#spectrum)"/>
  <rect x="415" y="625" width="870" height="46" fill="#F5F5F5"/>
  <g fill="#111111">
    <rect x="430" y="625" width="6" height="46"/>
    <rect x="445" y="625" width="10" height="46"/>
    <rect x="464" y="625" width="6" height="46"/>
    <rect x="478" y="625" width="10" height="46"/>
    <rect x="497" y="625" width="6" height="46"/>
    <rect x="511" y="625" width="10" height="46"/>
    <rect x="530" y="625" width="6" height="46"/>
    <rect x="544" y="625" width="10" height="46"/>
    <rect x="563" y="625" width="6" height="46"/>
    <rect x="577" y="625" width="10" height="46"/>
    <rect x="596" y="625" width="6" height="46"/>
    <rect x="610" y="625" width="10" height="46"/>
    <rect x="629" y="625" width="6" height="46"/>
    <rect x="643" y="625" width="10" height="46"/>
    <rect x="662" y="625" width="6" height="46"/>
    <rect x="676" y="625" width="10" height="46"/>
    <rect x="695" y="625" width="6" height="46"/>
    <rect x="709" y="625" width="10" height="46"/>
    <rect x="728" y="625" width="6" height="46"/>
    <rect x="742" y="625" width="10" height="46"/>
    <rect x="761" y="625" width="6" height="46"/>
    <rect x="775" y="625" width="10" height="46"/>
    <rect x="794" y="625" width="6" height="46"/>
    <rect x="808" y="625" width="10" height="46"/>
    <rect x="827" y="625" width="6" height="46"/>
    <rect x="841" y="625" width="10" height="46"/>
    <rect x="860" y="625" width="6" height="46"/>
    <rect x="874" y="625" width="10" height="46"/>
    <rect x="893" y="625" width="6" height="46"/>
    <rect x="907" y="625" width="10" height="46"/>
    <rect x="926" y="625" width="6" height="46"/>
    <rect x="940" y="625" width="10" height="46"/>
    <rect x="959" y="625" width="6" height="46"/>
    <rect x="973" y="625" width="10" height="46"/>
    <rect x="992" y="625" width="6" height="46"/>
    <rect x="1006" y="625" width="10" height="46"/>
    <rect x="1025" y="625" width="6" height="46"/>
    <rect x="1039" y="625" width="10" height="46"/>
    <rect x="1058" y="625" width="6" height="46"/>
    <rect x="1072" y="625" width="10" height="46"/>
    <rect x="1091" y="625" width="6" height="46"/>
    <rect x="1105" y="625" width="10" height="46"/>
    <rect x="1124" y="625" width="6" height="46"/>
    <rect x="1138" y="625" width="10" height="46"/>
    <rect x="1157" y="625" width="6" height="46"/>
    <rect x="1171" y="625" width="10" height="46"/>
  </g>

  <rect x="640" y="700" width="320" height="62" fill="#111111"/>
  <rect x="715" y="762" width="170" height="74" fill="#FFF033"/>
  <rect x="795" y="762" width="45" height="74" fill="#FF2323"/>

  <rect x="110" y="650" width="130" height="130" fill="#F5F5F5"/>
  <circle cx="175" cy="715" r="55" fill="#F5F5F5" stroke="#111111" stroke-width="4"/>
  <path d="M175 663V767M123 715H227" stroke="#111111" stroke-width="3"/>
  <rect x="1370" y="650" width="130" height="130" fill="#F5F5F5"/>
  <circle cx="1435" cy="715" r="55" fill="#111111"/>

  <rect x="0" y="0" width="1600" height="900" fill="url(#topGlow)" opacity="0.15"/>
</svg>
